<svg width="7" height="12" viewBox="0 0 7 12" fill="none" xmlns="http://www.w3.org/2000/svg">
<path d="M4.46197 5.95819L0.293902 1.79013C0.0979673 1.5942 0 1.34482 0 1.04202C0 0.739208 0.0979673 0.489836 0.293902 0.293902C0.489836 0.0979673 0.739208 0 1.04202 0C1.34482 0 1.5942 0.0979673 1.79013 0.293902L6.70631 5.21008C6.81318 5.31695 6.88888 5.43273 6.93341 5.55742C6.97794 5.6821 7.00021 5.8157 7.00021 5.95819C7.00021 6.10069 6.97794 6.23428 6.93341 6.35897C6.88888 6.48365 6.81318 6.59943 6.70631 6.70631L1.79013 11.6225C1.5942 11.8184 1.34482 11.9164 1.04202 11.9164C0.739208 11.9164 0.489836 11.8184 0.293902 11.6225C0.0979673 11.4265 0 11.1772 0 10.8744C0 10.5716 0.0979673 10.3222 0.293902 10.1263L4.46197 5.95819Z" fill="white"/>
</svg>
